<mxfile host="www.draw.io" modified="2019-10-31T01:48:53.016Z" agent="Mozilla/5.0 (Macintosh; Intel Mac OS X 10_14_6) AppleWebKit/537.36 (KHTML, like Gecko) Chrome/78.0.3904.70 Safari/537.36" etag="BbZHzpN-2TuRgNpVfmQy" version="12.1.9" type="github" pages="1">
  <diagram id="exMwhVz5cOcehTMv7F8w" name="Page-1">
    <mxGraphModel dx="1426" dy="771" grid="1" gridSize="10" guides="1" tooltips="1" connect="1" arrows="1" fold="1" page="1" pageScale="1" pageWidth="827" pageHeight="1169" math="0" shadow="0">
      <root>
        <mxCell id="0"/>
        <mxCell id="1" parent="0"/>
        <mxCell id="1xPw11D1j_KxezTZeNWg-12" value="request_aid" style="swimlane;fontStyle=0;childLayout=stackLayout;horizontal=1;startSize=26;fillColor=#e0e0e0;horizontalStack=0;resizeParent=1;resizeParentMax=0;resizeLast=0;collapsible=1;marginBottom=0;swimlaneFillColor=#ffffff;align=center;fontSize=14;" vertex="1" parent="1">
          <mxGeometry x="80" y="130" width="210" height="142" as="geometry"/>
        </mxCell>
        <mxCell id="1xPw11D1j_KxezTZeNWg-13" value="seed key" style="shape=partialRectangle;top=0;left=0;right=0;bottom=0;align=left;verticalAlign=middle;fillColor=none;spacingLeft=60;spacingRight=4;overflow=hidden;rotatable=0;points=[[0,0.5],[1,0.5]];portConstraint=eastwest;dropTarget=0;fontStyle=5;fontSize=12;" vertex="1" parent="1xPw11D1j_KxezTZeNWg-12">
          <mxGeometry y="26" width="210" height="30" as="geometry"/>
        </mxCell>
        <mxCell id="1xPw11D1j_KxezTZeNWg-14" value="params" style="shape=partialRectangle;fontStyle=1;top=0;left=0;bottom=0;fillColor=none;align=left;verticalAlign=middle;spacingLeft=4;spacingRight=4;overflow=hidden;rotatable=0;points=[];portConstraint=eastwest;part=1;fontSize=12;" vertex="1" connectable="0" parent="1xPw11D1j_KxezTZeNWg-13">
          <mxGeometry width="56" height="30" as="geometry"/>
        </mxCell>
        <mxCell id="1xPw11D1j_KxezTZeNWg-15" value="sKey2 (00, 01)" style="shape=partialRectangle;top=0;left=0;right=0;bottom=1;align=left;verticalAlign=middle;fillColor=none;spacingLeft=60;spacingRight=4;overflow=hidden;rotatable=0;points=[[0,0.5],[1,0.5]];portConstraint=eastwest;dropTarget=0;fontStyle=5;fontSize=12;strokeColor=none;" vertex="1" parent="1xPw11D1j_KxezTZeNWg-12">
          <mxGeometry y="56" width="210" height="30" as="geometry"/>
        </mxCell>
        <mxCell id="1xPw11D1j_KxezTZeNWg-16" value="" style="shape=partialRectangle;fontStyle=1;top=0;left=0;bottom=0;fillColor=none;align=left;verticalAlign=middle;spacingLeft=4;spacingRight=4;overflow=hidden;rotatable=0;points=[];portConstraint=eastwest;part=1;fontSize=12;" vertex="1" connectable="0" parent="1xPw11D1j_KxezTZeNWg-15">
          <mxGeometry width="56" height="30" as="geometry"/>
        </mxCell>
        <mxCell id="1xPw11D1j_KxezTZeNWg-23" value="api server address" style="shape=partialRectangle;top=0;left=0;right=0;bottom=1;align=left;verticalAlign=middle;fillColor=none;spacingLeft=60;spacingRight=4;overflow=hidden;rotatable=0;points=[[0,0.5],[1,0.5]];portConstraint=eastwest;dropTarget=0;fontStyle=5;fontSize=12;" vertex="1" parent="1xPw11D1j_KxezTZeNWg-12">
          <mxGeometry y="86" width="210" height="30" as="geometry"/>
        </mxCell>
        <mxCell id="1xPw11D1j_KxezTZeNWg-24" value="" style="shape=partialRectangle;fontStyle=1;top=0;left=0;bottom=0;fillColor=none;align=left;verticalAlign=middle;spacingLeft=4;spacingRight=4;overflow=hidden;rotatable=0;points=[];portConstraint=eastwest;part=1;fontSize=12;" vertex="1" connectable="0" parent="1xPw11D1j_KxezTZeNWg-23">
          <mxGeometry width="56" height="30" as="geometry"/>
        </mxCell>
        <mxCell id="1xPw11D1j_KxezTZeNWg-17" value="aaid, Ra" style="shape=partialRectangle;top=0;left=0;right=0;bottom=0;align=left;verticalAlign=top;fillColor=none;spacingLeft=60;spacingRight=4;overflow=hidden;rotatable=0;points=[[0,0.5],[1,0.5]];portConstraint=eastwest;dropTarget=0;fontSize=12;fontStyle=1" vertex="1" parent="1xPw11D1j_KxezTZeNWg-12">
          <mxGeometry y="116" width="210" height="26" as="geometry"/>
        </mxCell>
        <mxCell id="1xPw11D1j_KxezTZeNWg-18" value="return" style="shape=partialRectangle;top=0;left=0;bottom=0;fillColor=none;align=left;verticalAlign=top;spacingLeft=4;spacingRight=4;overflow=hidden;rotatable=0;points=[];portConstraint=eastwest;part=1;fontSize=12;fontStyle=1" vertex="1" connectable="0" parent="1xPw11D1j_KxezTZeNWg-17">
          <mxGeometry width="56" height="26" as="geometry"/>
        </mxCell>
        <mxCell id="1xPw11D1j_KxezTZeNWg-25" value="register_auth" style="swimlane;fontStyle=0;childLayout=stackLayout;horizontal=1;startSize=26;fillColor=#e0e0e0;horizontalStack=0;resizeParent=1;resizeParentMax=0;resizeLast=0;collapsible=1;marginBottom=0;swimlaneFillColor=#ffffff;align=center;fontSize=14;" vertex="1" parent="1">
          <mxGeometry x="360" y="130" width="270" height="142" as="geometry"/>
        </mxCell>
        <mxCell id="1xPw11D1j_KxezTZeNWg-26" value="auth info(face, finger, pin!)" style="shape=partialRectangle;top=0;left=0;right=0;bottom=0;align=left;verticalAlign=middle;fillColor=none;spacingLeft=60;spacingRight=4;overflow=hidden;rotatable=0;points=[[0,0.5],[1,0.5]];portConstraint=eastwest;dropTarget=0;fontStyle=5;fontSize=12;" vertex="1" parent="1xPw11D1j_KxezTZeNWg-25">
          <mxGeometry y="26" width="270" height="30" as="geometry"/>
        </mxCell>
        <mxCell id="1xPw11D1j_KxezTZeNWg-27" value="params" style="shape=partialRectangle;fontStyle=1;top=0;left=0;bottom=0;fillColor=none;align=left;verticalAlign=middle;spacingLeft=4;spacingRight=4;overflow=hidden;rotatable=0;points=[];portConstraint=eastwest;part=1;fontSize=12;" vertex="1" connectable="0" parent="1xPw11D1j_KxezTZeNWg-26">
          <mxGeometry width="56" height="30" as="geometry"/>
        </mxCell>
        <mxCell id="1xPw11D1j_KxezTZeNWg-28" value="phone number" style="shape=partialRectangle;top=0;left=0;right=0;bottom=1;align=left;verticalAlign=middle;fillColor=none;spacingLeft=60;spacingRight=4;overflow=hidden;rotatable=0;points=[[0,0.5],[1,0.5]];portConstraint=eastwest;dropTarget=0;fontStyle=5;fontSize=12;strokeColor=none;" vertex="1" parent="1xPw11D1j_KxezTZeNWg-25">
          <mxGeometry y="56" width="270" height="30" as="geometry"/>
        </mxCell>
        <mxCell id="1xPw11D1j_KxezTZeNWg-29" value="" style="shape=partialRectangle;fontStyle=1;top=0;left=0;bottom=0;fillColor=none;align=left;verticalAlign=middle;spacingLeft=4;spacingRight=4;overflow=hidden;rotatable=0;points=[];portConstraint=eastwest;part=1;fontSize=12;" vertex="1" connectable="0" parent="1xPw11D1j_KxezTZeNWg-28">
          <mxGeometry width="56" height="30" as="geometry"/>
        </mxCell>
        <mxCell id="1xPw11D1j_KxezTZeNWg-30" value="api server address" style="shape=partialRectangle;top=0;left=0;right=0;bottom=1;align=left;verticalAlign=middle;fillColor=none;spacingLeft=60;spacingRight=4;overflow=hidden;rotatable=0;points=[[0,0.5],[1,0.5]];portConstraint=eastwest;dropTarget=0;fontStyle=5;fontSize=12;" vertex="1" parent="1xPw11D1j_KxezTZeNWg-25">
          <mxGeometry y="86" width="270" height="30" as="geometry"/>
        </mxCell>
        <mxCell id="1xPw11D1j_KxezTZeNWg-31" value="" style="shape=partialRectangle;fontStyle=1;top=0;left=0;bottom=0;fillColor=none;align=left;verticalAlign=middle;spacingLeft=4;spacingRight=4;overflow=hidden;rotatable=0;points=[];portConstraint=eastwest;part=1;fontSize=12;" vertex="1" connectable="0" parent="1xPw11D1j_KxezTZeNWg-30">
          <mxGeometry width="56" height="30" as="geometry"/>
        </mxCell>
        <mxCell id="1xPw11D1j_KxezTZeNWg-32" value="Token" style="shape=partialRectangle;top=0;left=0;right=0;bottom=0;align=left;verticalAlign=top;fillColor=none;spacingLeft=60;spacingRight=4;overflow=hidden;rotatable=0;points=[[0,0.5],[1,0.5]];portConstraint=eastwest;dropTarget=0;fontSize=12;fontStyle=1" vertex="1" parent="1xPw11D1j_KxezTZeNWg-25">
          <mxGeometry y="116" width="270" height="26" as="geometry"/>
        </mxCell>
        <mxCell id="1xPw11D1j_KxezTZeNWg-33" value="return" style="shape=partialRectangle;top=0;left=0;bottom=0;fillColor=none;align=left;verticalAlign=top;spacingLeft=4;spacingRight=4;overflow=hidden;rotatable=0;points=[];portConstraint=eastwest;part=1;fontSize=12;fontStyle=1" vertex="1" connectable="0" parent="1xPw11D1j_KxezTZeNWg-32">
          <mxGeometry width="56" height="26" as="geometry"/>
        </mxCell>
        <mxCell id="1xPw11D1j_KxezTZeNWg-34" value="사용자 등록" style="rounded=0;whiteSpace=wrap;html=1;dashed=1;" vertex="1" parent="1">
          <mxGeometry x="80" y="80" width="120" height="30" as="geometry"/>
        </mxCell>
        <mxCell id="1xPw11D1j_KxezTZeNWg-35" value="사용자 인증" style="rounded=0;whiteSpace=wrap;html=1;dashed=1;" vertex="1" parent="1">
          <mxGeometry x="80" y="310" width="120" height="30" as="geometry"/>
        </mxCell>
        <mxCell id="1xPw11D1j_KxezTZeNWg-36" value="sign_in" style="swimlane;fontStyle=0;childLayout=stackLayout;horizontal=1;startSize=26;fillColor=#e0e0e0;horizontalStack=0;resizeParent=1;resizeParentMax=0;resizeLast=0;collapsible=1;marginBottom=0;swimlaneFillColor=#ffffff;align=center;fontSize=14;" vertex="1" parent="1">
          <mxGeometry x="80" y="368" width="210" height="142" as="geometry"/>
        </mxCell>
        <mxCell id="1xPw11D1j_KxezTZeNWg-37" value="aaid" style="shape=partialRectangle;top=0;left=0;right=0;bottom=0;align=left;verticalAlign=middle;fillColor=none;spacingLeft=60;spacingRight=4;overflow=hidden;rotatable=0;points=[[0,0.5],[1,0.5]];portConstraint=eastwest;dropTarget=0;fontStyle=5;fontSize=12;" vertex="1" parent="1xPw11D1j_KxezTZeNWg-36">
          <mxGeometry y="26" width="210" height="30" as="geometry"/>
        </mxCell>
        <mxCell id="1xPw11D1j_KxezTZeNWg-38" value="params" style="shape=partialRectangle;fontStyle=1;top=0;left=0;bottom=0;fillColor=none;align=left;verticalAlign=middle;spacingLeft=4;spacingRight=4;overflow=hidden;rotatable=0;points=[];portConstraint=eastwest;part=1;fontSize=12;" vertex="1" connectable="0" parent="1xPw11D1j_KxezTZeNWg-37">
          <mxGeometry width="56" height="30" as="geometry"/>
        </mxCell>
        <mxCell id="1xPw11D1j_KxezTZeNWg-39" value="pKey" style="shape=partialRectangle;top=0;left=0;right=0;bottom=1;align=left;verticalAlign=middle;fillColor=none;spacingLeft=60;spacingRight=4;overflow=hidden;rotatable=0;points=[[0,0.5],[1,0.5]];portConstraint=eastwest;dropTarget=0;fontStyle=5;fontSize=12;strokeColor=none;" vertex="1" parent="1xPw11D1j_KxezTZeNWg-36">
          <mxGeometry y="56" width="210" height="30" as="geometry"/>
        </mxCell>
        <mxCell id="1xPw11D1j_KxezTZeNWg-40" value="" style="shape=partialRectangle;fontStyle=1;top=0;left=0;bottom=0;fillColor=none;align=left;verticalAlign=middle;spacingLeft=4;spacingRight=4;overflow=hidden;rotatable=0;points=[];portConstraint=eastwest;part=1;fontSize=12;" vertex="1" connectable="0" parent="1xPw11D1j_KxezTZeNWg-39">
          <mxGeometry width="56" height="30" as="geometry"/>
        </mxCell>
        <mxCell id="1xPw11D1j_KxezTZeNWg-41" value="" style="shape=partialRectangle;top=0;left=0;right=0;bottom=1;align=left;verticalAlign=middle;fillColor=none;spacingLeft=60;spacingRight=4;overflow=hidden;rotatable=0;points=[[0,0.5],[1,0.5]];portConstraint=eastwest;dropTarget=0;fontStyle=5;fontSize=12;" vertex="1" parent="1xPw11D1j_KxezTZeNWg-36">
          <mxGeometry y="86" width="210" height="30" as="geometry"/>
        </mxCell>
        <mxCell id="1xPw11D1j_KxezTZeNWg-42" value="" style="shape=partialRectangle;fontStyle=1;top=0;left=0;bottom=0;fillColor=none;align=left;verticalAlign=middle;spacingLeft=4;spacingRight=4;overflow=hidden;rotatable=0;points=[];portConstraint=eastwest;part=1;fontSize=12;" vertex="1" connectable="0" parent="1xPw11D1j_KxezTZeNWg-41">
          <mxGeometry width="56" height="30" as="geometry"/>
        </mxCell>
        <mxCell id="1xPw11D1j_KxezTZeNWg-43" value="token" style="shape=partialRectangle;top=0;left=0;right=0;bottom=0;align=left;verticalAlign=top;fillColor=none;spacingLeft=60;spacingRight=4;overflow=hidden;rotatable=0;points=[[0,0.5],[1,0.5]];portConstraint=eastwest;dropTarget=0;fontSize=12;fontStyle=1" vertex="1" parent="1xPw11D1j_KxezTZeNWg-36">
          <mxGeometry y="116" width="210" height="26" as="geometry"/>
        </mxCell>
        <mxCell id="1xPw11D1j_KxezTZeNWg-44" value="return" style="shape=partialRectangle;top=0;left=0;bottom=0;fillColor=none;align=left;verticalAlign=top;spacingLeft=4;spacingRight=4;overflow=hidden;rotatable=0;points=[];portConstraint=eastwest;part=1;fontSize=12;fontStyle=1" vertex="1" connectable="0" parent="1xPw11D1j_KxezTZeNWg-43">
          <mxGeometry width="56" height="26" as="geometry"/>
        </mxCell>
        <mxCell id="1xPw11D1j_KxezTZeNWg-45" value="discussion, eval, vote create, Join, entering" style="rounded=0;whiteSpace=wrap;html=1;dashed=1;" vertex="1" parent="1">
          <mxGeometry x="80" y="540" width="180" height="50" as="geometry"/>
        </mxCell>
      </root>
    </mxGraphModel>
  </diagram>
</mxfile>
